<svg xmlns="http://www.w3.org/2000/svg" width="1200" height="230" viewBox="0 0 1200 230" role="img" aria-labelledby="title desc">
<title id="title">Shichen Gong</title>
<desc id="desc">Engineer and builder. AI agents, on-device runtimes, and developer tools.</desc>
<rect width="1200" height="230" rx="16" fill="#16141f"/>
<path d="M0 225H1200" stroke="#b99af0" stroke-width="3" opacity=".4"/>
<g font-family="-apple-system,BlinkMacSystemFont,'Segoe UI',Helvetica,Arial,sans-serif">
<text x="48" y="46" fill="#b99af0" font-size="12" font-weight="700" letter-spacing="3">ENGINEER / BUILDER</text>
<text x="45" y="112" fill="#f0ecff" font-size="56" font-weight="700" letter-spacing="-2">Shichen Gong</text>
<text x="48" y="151" fill="#b1a8ca" font-size="20">AI agents, on-device runtimes, and developer tools.</text>
<text x="48" y="197" fill="#b1a8ca" font-size="12" letter-spacing="2">BUILD WITH CURIOSITY. SHIP WITH CARE.</text>
</g>
<g fill="none" stroke="#443457" stroke-width="2">
<path d="M870 116H911Q932 116 932 94V67H979"/>
<path d="M870 116H979"/>
<path d="M870 116H911Q932 116 932 138V165H979"/>
<path d="M1027 67H1074M1027 116H1101M1027 165H1074" stroke-dasharray="3 6"/>
</g>
<rect x="799" y="81" width="72" height="72" rx="18" fill="#211c2d" stroke="#443457"/>
<path d="m823 104-12 13 12 13m25-26 12 13-12 13m-10-30-8 40" fill="none" stroke="#b99af0" stroke-width="3.5" stroke-linecap="round" stroke-linejoin="round"/>
<g fill="#16141f" stroke="#b99af0" stroke-width="2">
<rect x="979" y="43" width="48" height="48" rx="12"/>
<rect x="979" y="92" width="48" height="48" rx="12"/>
<rect x="979" y="141" width="48" height="48" rx="12"/>
</g>
<g fill="#b99af0">
<circle cx="1003" cy="67" r="5"/><circle cx="1003" cy="116" r="5"/><circle cx="1003" cy="165" r="5"/>
<circle cx="1080" cy="67" r="3" opacity=".55"/><circle cx="1107" cy="116" r="3" opacity=".55"/><circle cx="1080" cy="165" r="3" opacity=".55"/>
</g>
</svg>
